<svg t="1605713445486" class="icon" viewBox="0 0 1024 1024" version="1.1" xmlns="http://www.w3.org/2000/svg" p-id="6045" width="200" height="200"><path d="M506.88 284.593231a89.895385 89.895385 0 0 0-89.836308 89.777231 89.895385 89.895385 0 0 0 89.816616 89.77723 89.895385 89.895385 0 0 0 89.816615-89.796923 89.915077 89.915077 0 0 0-89.796923-89.757538z m0 222.326154c-73.137231 0-132.627692-59.470769-132.627692-132.548923 0-73.097846 59.470769-132.568615 132.608-132.568616 73.117538 0 132.608 59.470769 132.608 132.568616 0 73.078154-59.470769 132.529231-132.608 132.52923z m286.779077 329.688615l0.098461-0.748308-0.118153-0.728615c-3.150769-18.727385-66.678154-51.2-193.161847-61.400615l-2.067692-0.157539a6166.685538 6166.685538 0 0 1-76.071384 77.863385c-4.115692 4.096-9.649231 6.439385-15.202462 6.439384a16.738462 16.738462 0 0 1-13.252923-6.025846l-0.374154-0.413538-2.540308-2.441846a2175.015385 2175.015385 0 0 1-73.64923-73.688616l-1.693539-1.811692-2.461538 0.256c-130.284308 12.603077-190.030769 46.08-193.043693 61.223384l-0.157538 0.787693 0.098461 0.768c2.993231 26.88 116.184615 65.929846 286.79877 65.929846 99.682462 0 168.664615-13.351385 208.974769-24.536615 36.391385-10.102154 75.953231-26.269538 77.824-41.314462zM234.850462 393.412923c0 36.489846 6.537846 71.305846 19.436307 103.542154 18.766769 45.883077 80.541538 126.562462 178.668308 233.590154 9.216 9.216 54.980923 55.591385 70.183385 70.774154l3.584 3.584 3.741538-3.446154c15.202462-15.222154 66.776615-67.308308 69.513846-70.045539 98.264615-107.008 158.641231-184.418462 179.377231-230.006154 14.572308-33.28 21.641846-67.899077 21.641846-105.865846-2.166154-153.678769-122.584615-273.998769-274.116923-273.998769-149.996308 0-272.029538 121.954462-272.029538 271.872z m502.488615 361.137231c65.792 20.224 99.150769 47.616 99.150769 81.427692 0 71.719385-165.809231 109.252923-329.629538 109.252923C343.059692 945.230769 177.230769 907.697231 177.230769 835.977846c0-33.811692 33.358769-61.203692 99.150769-81.427692 35.859692-11.027692 74.082462-17.565538 103.187693-21.326769-88.457846-96.472615-145.152-172.484923-164.568616-220.987077-15.222154-39.108923-22.941538-79.104-22.941538-118.823385C192.059077 219.923692 333.272615 78.769231 506.88 78.769231c173.587692 0 314.801231 141.154462 314.801231 314.643692 0 43.362462-7.936 82.432-25.009231 122.958769-21.346462 48.462769-76.878769 123.116308-161.28 217.009231 28.888615 3.780923 66.56 10.279385 101.966769 21.169231z" p-id="6046" fill="#167758"></path></svg>