<svg t="1605673717074" class="icon" viewBox="0 0 1126 1024" version="1.1" xmlns="http://www.w3.org/2000/svg" p-id="2326" width="200" height="200"><path d="M942.3125 351.6875V258.875A92.8125 92.8125 0 0 0 849.5 166.0625H258.875A92.8125 92.8125 0 0 0 166.0625 258.875v506.25A92.8125 92.8125 0 0 0 258.875 857.9375h590.625a92.8125 92.8125 0 0 0 92.8125-92.8125v-92.8125H638.5625a75.9375 75.9375 0 0 1-75.9375-75.9375V427.625A75.9375 75.9375 0 0 1 638.5625 351.6875h303.75z m0 67.5H638.5625a8.4375 8.4375 0 0 0-8.4375 8.4375v168.75c0 4.640625 3.796875 8.4375 8.4375 8.4375h303.75V419.1875zM258.875 98.5625h590.625A160.3125 160.3125 0 0 1 1009.8125 258.875v506.25a160.3125 160.3125 0 0 1-160.3125 160.3125H258.875A160.3125 160.3125 0 0 1 98.5625 765.125V258.875A160.3125 160.3125 0 0 1 258.875 98.5625z" p-id="2327" fill="#167758"></path><path d="M722.9375 512m-42.1875 0a42.1875 42.1875 0 1 0 84.375 0 42.1875 42.1875 0 1 0-84.375 0Z" p-id="2328" fill="#167758"></path></svg>