<svg t="1605673826204" class="icon" viewBox="0 0 1024 1024" version="1.1" xmlns="http://www.w3.org/2000/svg" p-id="2605" width="200" height="200"><path d="M698.181818 372.363636h93.090909l186.181818 186.181819v93.090909H698.181818V372.363636z" fill="#167758" p-id="2606"></path><path d="M930.909091 512.768V791.272727a46.545455 46.545455 0 0 1-46.545455 46.545455h-48.872727a116.363636 116.363636 0 0 1-228.072727 0H370.036364a116.363636 116.363636 0 0 1-228.072728 0H93.090909a46.545455 46.545455 0 0 1-46.545454-46.545455V139.636364a46.545455 46.545455 0 0 1 46.545454-46.545455h418.909091a46.545455 46.545455 0 0 1 46.545455 46.545455v186.181818h185.413818a22.923636 22.923636 0 0 1 16.849454 6.679273l163.421091 163.42109a22.853818 22.853818 0 0 1 6.679273 16.849455zM256 884.363636a69.818182 69.818182 0 1 0-69.818182-69.818181 69.818182 69.818182 0 0 0 69.818182 69.818181z m256-512V139.636364H93.090909v651.636363h48.872727a116.363636 116.363636 0 0 1 228.072728 0H512V372.363636z m209.454545 512a69.818182 69.818182 0 1 0-69.818181-69.818181 69.818182 69.818182 0 0 0 69.818181 69.818181z m-69.818181-302.545454v-209.454546h-93.090909v418.909091h48.872727a116.363636 116.363636 0 0 1 228.072727 0H884.363636v-186.181818h-209.454545a23.272727 23.272727 0 0 1-23.272727-23.272727z m83.781818-209.454546H698.181818v186.181819h186.181818v-37.236364z" fill="#167758" p-id="2607"></path></svg>