<svg t="1605673967233" class="icon" viewBox="0 0 1024 1024" version="1.1" xmlns="http://www.w3.org/2000/svg" p-id="4485" width="200" height="200"><path d="M714.157419 221.316129h64.743226c13.212903 0 23.783226 10.570323 23.783226 23.783226v524.552258c0 13.212903-10.570323 23.783226-23.783226 23.783226H254.348387c-13.212903 0-23.783226-10.570323-23.783226-23.783226V245.099355c0-13.212903 10.570323-23.783226 23.783226-23.783226h52.851613v-47.566452h-52.851613c-39.63871 0-71.349677 31.710968-71.349677 71.349678v524.552258c0 39.63871 31.710968 71.349677 71.349677 71.349677h524.552258c39.63871 0 71.349677-31.710968 71.349678-71.349677V245.099355c0-39.63871-31.710968-71.349677-71.349678-71.349678h-64.743226v47.566452z m-284.738064 0h167.803871v-47.566452H429.419355v47.566452z" p-id="4486" fill="#167758"></path><path d="M363.354839 530.498065l92.490322 111.649032 240.474839-154.590968c11.230968-7.267097 14.534194-21.80129 7.267097-33.032258-7.267097-11.230968-21.80129-14.534194-33.032258-7.267097l-204.8 131.468387-66.064516-79.277419c-8.588387-9.909677-23.783226-11.230968-33.692904-3.303226-9.909677 9.249032-11.230968 24.443871-2.64258 34.353549z" p-id="4487" fill="#167758"></path></svg>