<svg t="1606209942803" class="icon" viewBox="0 0 1024 1024" version="1.1" xmlns="http://www.w3.org/2000/svg" p-id="2961" width="200" height="200"><path d="M512.032002 237.105181a29.310168 29.310168 0 0 1-29.310168-29.246172V29.310168a29.310168 29.310168 0 0 1 58.620336 0v178.548841A29.310168 29.310168 0 0 1 512.032002 237.105181zM512.032002 1024a29.310168 29.310168 0 0 1-29.310168-29.310168v-178.484845a29.310168 29.310168 0 1 1 58.620336 0v178.548841A29.310168 29.310168 0 0 1 512.032002 1024z m482.657834-482.657834h-178.484845a29.310168 29.310168 0 1 1 0-58.620336h178.548841a29.310168 29.310168 0 1 1 0 58.620336z m-786.830823 0H29.310172a29.310168 29.310168 0 0 1 0-58.620336h178.548841a29.310168 29.310168 0 0 1 0 58.620336z m519.263546-215.090557a29.182176 29.182176 0 0 1-20.734704-49.980876l126.264108-126.264108a29.310168 29.310168 0 1 1 41.405412 41.405412l-126.264108 126.264108a29.182176 29.182176 0 0 1-20.670708 8.575464zM170.741333 882.568839a29.182176 29.182176 0 0 1-20.734704-49.980876l126.264108-126.264108a29.246172 29.246172 0 1 1 41.405412 41.405412L191.412041 874.057371a29.182176 29.182176 0 0 1-20.670708 8.575464z m682.581338 0a29.182176 29.182176 0 0 1-20.670708-8.575464l-126.264108-126.264108a29.310168 29.310168 0 1 1 41.405412-41.405412l126.264108 126.264108a29.310168 29.310168 0 0 1-20.734704 49.91688zM297.005441 326.251609a29.182176 29.182176 0 0 1-20.670708-8.575464L150.006629 191.412037a29.310168 29.310168 0 1 1 41.405412-41.405412l126.264108 126.264108a29.310168 29.310168 0 0 1-20.734704 49.91688z" p-id="2962"></path></svg>