<svg t="1604299741260" class="icon" viewBox="0 0 1024 1024" version="1.1" xmlns="http://www.w3.org/2000/svg" p-id="4735" width="200" height="200"><path d="M942.015938 960.095556c-9.890729 0-17.908718-8.017989-17.908718-17.908718L924.10722 277.03251c0-9.890729 8.017989-17.908718 17.908718-17.908718s17.908718 8.017989 17.908718 17.908718l0 665.154329C959.924655 952.077567 951.906667 960.095556 942.015938 960.095556zM82.946016 597.300757c-6.190276 0-12.209652-3.212312-15.526346-8.957429-4.945876-8.565484-2.010893-19.518455 6.554591-24.463308L877.919103 99.720856 560.798697 99.720856c-9.890729 0-17.908718-8.017989-17.908718-17.908718s8.017989-17.908718 17.908718-17.908718l383.95574 0c8.105997 0 15.200919 5.44425 17.297774 13.273941 2.098902 7.828668-1.324222 16.092262-8.343416 20.144749L91.882978 594.897918C89.062611 596.526077 85.983334 597.300757 82.946016 597.300757zM82.928619 960.095556c-9.890729 0-17.908718-8.017989-17.908718-17.908718L65.019901 782.145328c0-9.890729 8.017989-17.908718 17.908718-17.908718s17.908718 8.017989 17.908718 17.908718l0 160.04151C100.837336 952.077567 92.819348 960.095556 82.928619 960.095556zM379.969771 960.095556c-9.890729 0-17.908718-8.017989-17.908718-17.908718L362.061054 611.293093c0-9.890729 8.017989-17.908718 17.908718-17.908718s17.908718 8.017989 17.908718 17.908718l0 330.893745C397.878489 952.077567 389.8605 960.095556 379.969771 960.095556zM653.397 960.095556c-9.890729 0-17.908718-8.017989-17.908718-17.908718L635.488282 453.521386c0-9.890729 8.017989-17.908718 17.908718-17.908718s17.908718 8.017989 17.908718 17.908718l0 488.665453C671.305717 952.077567 663.287729 960.095556 653.397 960.095556zM480.023217 81.614631c0 9.889705-8.019012 17.908718-17.908718 17.908718-9.891752 0-17.908718-8.019012-17.908718-17.908718 0-9.891752 8.016965-17.908718 17.908718-17.908718C472.004205 63.705913 480.023217 71.722879 480.023217 81.614631" p-id="4736" fill="#707070"></path></svg>